<?xml version="1.0" standalone="no"?>
<!DOCTYPE svg PUBLIC "-//W3C//DTD SVG 20010904//EN"
 "http://www.w3.org/TR/2001/REC-SVG-20010904/DTD/svg10.dtd">
<svg version="1.0" xmlns="http://www.w3.org/2000/svg"
 width="559.000000pt" height="577.000000pt" viewBox="0 0 559.000000 577.000000"
 preserveAspectRatio="xMidYMid meet">

<g transform="translate(0.000000,577.000000) scale(0.100000,-0.100000)"
fill="#000000" stroke="none">
<path d="M78 5722 l-28 -3 0 -2830 0 -2829 1486 0 1485 0 -20 28 c-11 15 -51
58 -90 97 -39 38 -71 73 -71 77 0 5 20 8 44 8 64 0 265 27 365 50 129 29 314
95 425 153 477 249 808 679 916 1192 27 128 38 393 21 520 -55 414 -277 799
-603 1045 -110 83 -257 163 -375 204 -197 68 -207 69 -748 75 -473 6 -492 7
-536 27 -129 60 -200 178 -200 333 0 184 110 358 281 444 95 48 162 66 275 73
227 15 427 -88 590 -304 39 -51 73 -94 76 -95 12 -4 309 288 309 304 0 8 -17
35 -37 60 -304 368 -663 519 -1076 453 -234 -37 -434 -140 -587 -300 -92 -97
-141 -170 -191 -285 -50 -115 -67 -183 -75 -299 -26 -380 209 -719 571 -826
52 -15 126 -18 555 -24 468 -6 499 -7 574 -28 91 -25 213 -82 303 -142 137
-90 308 -295 376 -451 34 -77 74 -218 88 -309 18 -114 6 -324 -25 -440 -63
-240 -165 -417 -339 -590 -206 -205 -430 -323 -736 -387 -106 -22 -153 -26
-296 -27 -259 0 -425 36 -645 140 -349 166 -624 443 -814 822 -25 50 -50 93
-55 96 -8 6 -302 -284 -309 -305 -5 -12 82 -165 159 -280 166 -248 407 -485
631 -620 32 -19 58 -37 58 -41 0 -5 -299 -8 -665 -8 l-665 0 2 2393 3 2392
315 5 c173 3 317 7 319 8 15 8 421 418 421 425 0 8 -1395 7 -1462 -1z"/>
<path d="M3923 5722 c-8 -5 47 -66 165 -182 97 -97 194 -191 215 -210 l38 -35
377 -5 377 -5 3 -629 c2 -494 -1 -631 -10 -637 -7 -5 -274 -8 -592 -8 -319 0
-583 -4 -588 -9 -5 -5 -7 -100 -6 -213 l3 -204 813 -3 812 -2 0 1070 c0 588
-1 1070 -2 1071 -19 5 -1596 7 -1605 1z"/>
<path d="M2625 5614 c-299 -30 -519 -93 -755 -215 -161 -84 -286 -175 -421
-309 -268 -267 -423 -549 -499 -911 -28 -131 -38 -374 -21 -514 41 -348 198
-676 446 -934 194 -201 405 -325 657 -386 102 -25 107 -25 558 -25 250 0 481
-4 514 -10 253 -41 357 -316 207 -548 -168 -259 -538 -339 -839 -182 -142 74
-244 175 -337 333 l-39 66 -35 -29 c-20 -16 -94 -87 -165 -158 l-129 -130 23
-34 c117 -169 278 -327 418 -411 350 -208 803 -206 1160 5 76 45 247 216 305
306 96 146 139 295 139 472 -1 327 -180 597 -470 707 -128 48 -180 52 -698 53
-459 0 -485 1 -550 21 -313 95 -596 400 -698 752 -89 305 -42 674 118 943 206
347 496 570 862 664 164 42 267 53 439 47 113 -4 176 -12 252 -31 341 -85 642
-273 858 -536 33 -40 72 -87 87 -104 l26 -31 146 145 c80 79 146 148 146 153
0 17 -96 133 -190 231 -257 268 -555 446 -903 541 -53 14 -135 32 -184 40 -88
15 -352 27 -428 19z"/>
<path d="M5308 1049 l-208 -111 -1 -111 c0 -62 -1 -159 -2 -217 l-2 -105 -386
-3 -386 -2 -160 -158 c-88 -86 -186 -185 -218 -219 l-58 -63 821 0 822 0 0
550 c0 303 -3 550 -7 550 -5 0 -101 -50 -215 -111z"/>
</g>
</svg>
